<svg xmlns="http://www.w3.org/2000/svg" viewBox="0 0 512 512">
  <rect width="512" height="512" rx="112" fill="#020617"/>
  <circle cx="256" cy="258" r="158" fill="#ffffff"/>
  <path fill="#0f172a" d="M180 214c0 23-15 42-34 42s-34-19-34-42 15-42 34-42 34 19 34 42Zm220 0c0 23-15 42-34 42s-34-19-34-42 15-42 34-42 34 19 34 42ZM230 292c16 13 36 13 52 0 10-8 24 3 18 15-8 18-25 31-44 31s-36-13-44-31c-6-12 8-23 18-15Z"/>
  <path fill="#22c55e" d="M119 107c23-39 69-61 115-52-26 25-48 55-65 88-19-14-36-26-50-36Zm274 0c-14 10-31 22-50 36-17-33-39-63-65-88 46-9 92 13 115 52Z"/>
</svg>
